OpenSim_Sub02_CSStiffKnee_GRF.mot
version=1
nRows=46
nColumns=19
inDegrees=no
endheader
time	lFx	lFy	lFz	lCOPx	lCOPy	lCOPz	rFx	rFy	rFz	rCOPx	rCOPy	rCOPz	lMx	lMy	lMz	rMx	rMy	rMz
51.68000000	45.10688885	511.36247187	50.13302595	0.65740289	0	-0.62808089	0.22896407	0.02292632	0.17299331	-0.00005147	0	0.00002023	0	0.99986435	0	0	-0.00000465	-0.00000000
51.69000000	46.89486444	515.33114264	49.88055727	0.65284705	0	-0.62818048	0.21603049	-0.06850523	0.21453639	-0.00006466	0	0.00002596	0	0.99436366	0	0	-0.00000381	-0.00000000
51.70000000	48.91771025	519.79961962	49.41121404	0.64838165	0	-0.62822288	0.21546145	-0.02710518	0.19951010	0.00000116	0	0.00000055	0	1.05939279	0	0	0.00000764	-0.00000000
51.71000000	51.36387875	524.86620768	48.85005810	0.64372574	0	-0.62817476	0.20307730	0.12472134	0.15988820	0.00025073	0	-0.00009792	0	1.18846967	0	0	0.00003808	0.00000000
51.72000000	54.17966151	530.35258015	48.37325533	0.63902122	0	-0.62808146	0.06286095	0.38951093	0.11283812	0.00076316	0	-0.00030196	0	1.34078665	0	0	0.00008730	0.00000000
51.73000000	57.23358588	535.98394192	48.07062476	0.63430527	0	-0.62796374	-0.35674823	0.86691018	0.03914416	0.00138364	0	-0.00055234	0	1.52735136	0	0	0.00012239	-0.00000000
51.74000000	60.53939826	541.77308743	48.02100048	0.62949458	0	-0.62780901	-1.14218561	1.72588092	-0.07372238	0.00133835	0	-0.00054443	0	1.70675743	0	0	0.00004318	0.00000000
51.75000000	64.18023606	547.92037991	48.23597679	0.62432920	0	-0.62764016	-1.97872045	2.59066183	-0.13949861	-0.00115290	0	0.00042914	0	1.87111862	0	0	-0.00033206	-0.00000000
51.76000000	68.12268926	554.37112166	48.59581966	0.61879409	0	-0.62754405	-2.65028173	2.83257468	-0.12379262	-0.00860148	0	0.00337714	0	2.04328329	0	0	-0.00117944	0.00000000
51.77000000	72.13198683	560.59398651	49.01603895	0.61319607	0	-0.62755940	-3.36985628	2.10173703	-0.09925802	-0.02193913	0	0.00870295	0	2.18023835	0	0	-0.00234860	-0.00000000
51.78000000	76.20821744	565.36909003	49.25990916	0.60762780	0	-0.62765244	-4.45396887	0.59785803	-0.10068192	-0.03449297	0	0.01381543	0	2.28891461	0	0	-0.00271175	0.00000000
51.79000000	80.37398663	567.30603213	49.04639692	0.60188940	0	-0.62776198	-6.00403083	-0.07415046	-0.27334727	-0.02231871	0	0.00925893	0	2.41418733	0	0	0.00061074	-0.00000000
51.80000000	84.42612817	565.28478508	48.24238469	0.59588501	0	-0.62784149	-7.51090489	4.73677039	-0.66453720	0.06252340	0	-0.02406465	0	2.53524151	0	0	0.01215081	0.00000000
51.81000000	87.99063306	558.69481871	46.82182925	0.58988976	0	-0.62786336	-7.70055665	23.97503169	-1.29037104	0.27588039	0	-0.10871925	0	2.65328373	0	0	0.03485180	0
51.82000000	90.63961069	547.06643619	44.79654875	0.58419242	0	-0.62786851	-5.65265764	68.43804347	-2.26657852	0.60698733	0	-0.24137430	0	2.81380294	0	0	0.06126043	-0.00000000
51.83000000	92.13727323	529.43620224	42.05818905	0.57877361	0	-0.62790187	-5.00126316	140.79337711	-3.76493283	0.89140665	0	-0.35698224	0	3.04490480	0	0	0.17854144	-0.00000000
51.84000000	92.24287853	504.33067973	38.46139778	0.57327910	0	-0.62792702	-14.33839670	225.49570521	-6.85521192	1.03208146	0	-0.41602254	0	3.33183506	0	0	0.51532447	0
51.85000000	90.62914505	470.58065994	34.03656242	0.56750079	0	-0.62769825	-32.98317533	300.06534653	-11.65300508	1.07023331	0	-0.43265965	0	3.62735365	0	0	0.79752958	0
51.86000000	86.69684247	428.33975696	28.97896432	0.56170836	0	-0.62710478	-52.98956728	353.00700186	-16.28587612	1.06509193	0	-0.43011877	0	3.90148804	0	0	0.74975257	0
51.87000000	79.88359392	378.71308390	23.61000866	0.55631344	0	-0.62648068	-69.05184465	384.81343813	-19.30665594	1.05038520	0	-0.42349141	0	4.02795037	0	0	0.45103814	0
51.88000000	70.13172660	323.11934473	18.23068537	0.55203506	0	-0.62692140	-80.18779320	403.16098572	-21.75109367	1.03795320	0	-0.41867336	0	3.88456778	0	0	0.21643310	0
51.89000000	57.57504472	263.73085790	13.38160754	0.55035135	0	-0.63019076	-88.10417396	417.75613138	-25.19325883	1.02936915	0	-0.41634250	0	3.38239747	0	0	0.07743785	0.00000000
51.90000000	42.83457023	204.08546044	9.78705478	0.55275880	0	-0.63767643	-93.65882018	435.45477424	-29.18625481	1.02348826	0	-0.41538114	0	2.48773219	0	0	-0.09641765	0
51.91000000	27.47423955	148.53898828	7.98151567	0.55802873	0	-0.64692540	-96.72828959	458.48452911	-33.38107909	1.01893242	0	-0.41481846	0	1.17692980	0	0	-0.31729752	0.00000000
51.92000000	13.48197190	101.18048509	7.78177065	0.55695393	0	-0.64551934	-97.40837978	485.82033352	-37.99330767	1.01468348	0	-0.41418881	0	-0.34929247	0	0	-0.55679924	0
51.93000000	2.80393300	64.69582996	8.04061047	0.52680931	0	-0.60690256	-96.35772855	514.26822484	-42.76234283	1.01017104	0	-0.41333864	0	-1.50868234	0	0	-0.72615265	0
51.94000000	-3.02917756	38.79552993	7.52223373	0.43578531	0	-0.49617232	-94.04082676	539.60084045	-47.11336664	1.00525866	0	-0.41236385	0	-1.77819390	0	0	-0.72407867	0
51.95000000	-3.63276564	20.67549910	5.94535359	0.27445052	0	-0.30603603	-90.60707933	558.25722760	-50.37541079	1.00011638	0	-0.41143210	0	-1.26246141	0	0	-0.60496085	0
51.96000000	-0.80387941	8.33475335	3.83784745	0.11134800	0	-0.12077568	-86.43899633	568.55299516	-52.04780135	0.99477846	0	-0.41065102	0	-0.55869107	0	0	-0.42846612	0
51.97000000	2.30506024	1.50101045	2.16222607	0.01744456	0	-0.01671999	-81.89157923	570.58079805	-52.19700514	0.98962750	0	-0.40997517	0	-0.11775103	0	0	-0.18587808	0.00000000
51.98000000	4.11565764	-0.81929838	1.55329344	-0.01529253	0	0.01836332	-76.92514288	565.20345962	-51.25850086	0.98483179	0	-0.40930125	0	0.05235049	0	0	0.03621329	0
51.99000000	4.77855737	-0.88524511	1.40377634	-0.01693680	0	0.01922288	-71.63278624	553.41710756	-49.75263069	0.98019816	0	-0.40859810	0	0.07328394	0	0	0.18068891	0.00000000
52.00000000	4.85801085	-0.31043948	1.48524708	-0.00962973	0	0.01066405	-66.55404847	536.87028265	-48.21296437	0.97558162	0	-0.40788588	0	0.04531129	0	0	0.29612083	0
52.01000000	4.74154493	0.22549495	1.59727017	-0.00330159	0	0.00353307	-61.95564210	518.11107462	-46.83847012	0.97097675	0	-0.40718073	0	0.01722551	0	0	0.37898546	0
52.02000000	4.59238691	0.53653160	1.58029788	-0.00012378	0	0.00003775	-57.80122283	499.94991288	-45.41215823	0.96624970	0	-0.40654103	0	0.00194604	0	0	0.41721131	0.00000000
52.03000000	4.46773100	0.64889132	1.53752900	0.00077085	0	-0.00090130	-53.92756150	484.70401750	-43.61935531	0.96141279	0	-0.40605119	0	-0.00297289	0	0	0.48230754	0.00000000
52.04000000	4.37300500	0.66168448	1.42254977	0.00065448	0	-0.00073702	-50.09925008	473.71164984	-41.37046301	0.95659192	0	-0.40572584	0	-0.00291141	0	0	0.57414698	0
52.05000000	4.29688122	0.69828387	1.35653886	0.00032467	0	-0.00035685	-46.10453450	467.38112541	-39.09991694	0.95173709	0	-0.40552429	0	-0.00156457	0	0	0.63714500	0
52.06000000	4.25091511	0.78107238	1.34390564	0.00008929	0	-0.00009349	-41.94650568	465.67241642	-37.46791380	0.94694273	0	-0.40540643	0	-0.00049428	0	0	0.71778108	0.00000000
52.07000000	4.23056825	0.87386297	1.29819791	-0.00001363	0	0.00001872	-37.97548143	468.23470988	-36.70859209	0.94231143	0	-0.40530118	0	0.00001398	0	0	0.78080065	0.00000000
52.08000000	4.22853743	0.97626573	1.24088135	-0.00003459	0	0.00003979	-34.76279155	474.24009890	-36.75726790	0.93787100	0	-0.40509538	0	0.00014176	0	0	0.77690005	-0.00000000
52.09000000	4.22432894	0.99395502	1.15754565	-0.00002433	0	0.00002718	-32.71545041	482.17040613	-37.54933851	0.93359846	0	-0.40476325	0	0.00011070	0	0	0.76230339	0.00000000
52.10000000	4.20062414	0.93539340	1.12589469	-0.00001038	0	0.00001133	-31.57283289	490.64512566	-38.74851339	0.92950595	0	-0.40434343	0	0.00005150	0	0	0.73146232	0
52.11000000	4.19008665	0.87244729	1.11214467	-0.00000151	0	0.00000163	-30.88594452	499.20280950	-40.09755259	0.92568024	0	-0.40386977	0	0.00001098	0	0	0.65578827	0
52.12000000	4.19738750	0.82813480	1.06649116	0.00000242	0	-0.00000237	-30.23069722	507.95561223	-41.54117402	0.92208141	0	-0.40340548	0	-0.00000734	0	0	0.58279858	0
52.13000000	4.21058262	0.78910285	1.01831831	0.00000340	0	-0.00000315	-29.46145728	517.06096568	-43.00696210	0.91858546	0	-0.40299032	0	-0.00001166	0	0	0.51632885	0.00000000
